<svg width="1364" height="384" viewBox="0 0 1364 384" fill="none" xmlns="http://www.w3.org/2000/svg">
<path d="M-2 53.9637L-2.00003 384L1364 384L1364 6.42735C1340.92 4.74442 1317.41 3.22723 1291.18 2.28521C1285.35 2.0758 1279.69 1.83908 1274.08 1.60491C1258.85 0.968883 1244.08 0.351661 1227.69 0.351659C1215.64 0.351658 1203.65 0.26361 1191.66 0.175642C1179.7 0.0878327 1167.75 0.000101099 1155.77 0.000100051C1123.13 9.71985e-05 1095.66 0.176711 1066.31 2.28519C1056.57 2.98486 1042.78 3.51562 1031.91 3.51562C1020.59 3.51562 1006.84 4.2256 994.598 4.85732C990.553 5.06613 986.673 5.26639 983.101 5.42962C956.255 6.65671 927.5 6.86789 899.172 7.07592C887.503 7.16162 875.906 7.24679 864.546 7.40222C861.786 7.43997 858.786 7.4982 855.653 7.55903L855.647 7.55913C840.161 7.85978 821.376 8.22444 811.794 6.5038C809.445 6.08211 798.09 6.20723 790.957 6.28583C788.861 6.30894 787.129 6.32802 786.098 6.32802C780.919 6.32802 775.752 6.24167 770.539 6.15457C765.233 6.06591 759.88 5.97646 754.419 5.97646C740.998 5.97646 732.436 6.47825 722.469 7.91C719.048 8.40149 714.665 8.54704 710.098 8.69868C705.133 8.8636 699.95 9.03572 695.549 9.66776C693.716 9.93112 691.892 10.2635 689.99 10.6101C685.105 11.5002 679.704 12.4845 672.301 12.6364C659.659 12.8959 650.421 13.3497 639.263 14.0622C635.186 14.3225 631.173 14.5003 627.241 14.6746C620.371 14.979 613.745 15.2727 607.448 15.9762C596.495 17.2 578.043 17.0565 562.786 16.9379C558.597 16.9053 554.648 16.8746 551.162 16.8746C548.382 16.8746 544.865 16.8204 541.139 16.7629C532.982 16.6372 523.823 16.496 519.212 16.8746C516.142 17.1265 510.978 17.3097 505.717 17.4963C498.57 17.7497 491.246 18.0095 488.757 18.4566C487.334 18.712 483.38 18.7232 479.713 18.7336C477.462 18.74 475.32 18.7461 473.937 18.8081C471.116 18.9348 468.4 19.0795 465.7 19.2233C462.451 19.3963 459.222 19.5683 455.855 19.7065C450.19 19.939 443.623 20.017 436.869 20.0972C425.499 20.2323 413.602 20.3736 404.599 21.269C402.465 21.4811 401.001 21.7515 399.514 22.0258C397.932 22.3179 396.324 22.6148 393.858 22.851C386.746 23.5321 379.004 23.8718 371.085 24.2193C368.268 24.3429 365.429 24.4675 362.588 24.6087C357.018 24.8857 352.265 25.4011 347.387 25.9302C342.048 26.5092 336.56 27.1044 329.686 27.4212C324.743 27.6489 319.743 27.875 314.714 28.1024C288.021 29.3094 260.527 30.5527 236.69 32.2648C227.962 32.8916 220.213 33.7085 212.438 34.5282C209.309 34.8579 206.175 35.1884 202.972 35.5069C199.579 35.8444 196.805 36.2121 193.992 36.5849L193.288 36.678C192.893 36.7303 192.496 36.7826 192.096 36.8349C190.121 37.0929 187.497 37.1654 184.885 37.2377C181.394 37.3342 177.924 37.4302 176.053 37.9677C175.131 38.2326 175.146 38.4896 175.16 38.7421C175.179 39.0753 175.198 39.4005 173.062 39.7255C172.363 39.8318 171.658 39.9411 170.946 40.0516C165.453 40.9031 159.467 41.8313 151.58 42.1082C137.414 42.6057 126.454 42.8895 111.88 42.8895C103.797 42.8895 101.603 43.3533 99.0096 43.9014C97.4137 44.2387 95.6664 44.608 92.3025 44.9207C89.2511 45.2043 86.7424 45.6397 84.2511 46.0722C82.7097 46.3397 81.1748 46.6061 79.5223 46.8347C76.0061 47.3211 71.7922 47.667 67.6177 48.0098C63.5207 48.3462 59.4617 48.6794 56.1374 49.1393C54.0002 49.4349 52.2952 49.7659 50.6145 50.0921C47.5183 50.6931 44.5018 51.2785 39.0067 51.6002C37.22 51.7047 35.1005 51.7656 33.0002 51.826C30.5229 51.8972 28.0727 51.9676 26.2267 52.108C22.9038 52.3607 18.942 52.5876 14.8395 52.8227C9.03772 53.155 2.95471 53.5035 -2 53.9637Z" fill="#D49F58"/>
</svg>
