<svg width="375" height="616" viewBox="0 0 375 616" fill="none" xmlns="http://www.w3.org/2000/svg">
<path d="M5.34672e-05 86.5668L7.18272e-06 616L375 616L375 10.3104C368.664 7.61066 362.211 5.17682 355.01 3.66567C353.409 3.32975 351.854 2.95001 350.315 2.57436C346.135 1.55407 342.078 0.563946 337.58 0.563946C334.272 0.563946 330.979 0.422703 327.69 0.281589C324.406 0.14073 321.125 -4.70989e-06 317.835 -4.99749e-06C308.877 -5.78069e-06 301.335 0.283316 293.276 3.66566C290.602 4.78805 286.818 5.63949 283.833 5.63949C280.726 5.63948 276.95 6.77842 273.59 7.7918C272.48 8.12676 271.415 8.44801 270.434 8.70987C263.064 10.6783 255.17 11.0171 247.394 11.3508C244.19 11.4883 241.007 11.6249 237.888 11.8743C237.13 11.9348 236.307 12.0282 235.446 12.1258L235.445 12.126C231.193 12.6083 226.037 13.1932 223.406 10.433C222.761 9.75659 219.644 9.95731 217.686 10.0834C217.11 10.1205 216.635 10.1511 216.352 10.1511C214.93 10.1511 213.512 10.0126 212.081 9.87283C210.624 9.73061 209.154 9.58712 207.655 9.58712C203.971 9.58712 201.62 10.3921 198.884 12.6888C197.945 13.4773 196.742 13.7108 195.488 13.954C194.125 14.2186 192.702 14.4947 191.494 15.5086C190.991 15.9311 190.49 16.4642 189.968 17.0203C188.627 18.4482 187.144 20.0271 185.112 20.2708C181.641 20.687 179.105 21.4151 176.042 22.558C174.923 22.9755 173.821 23.2608 172.742 23.5403C170.856 24.0288 169.037 24.4998 167.308 25.6283C164.301 27.5916 159.236 27.3614 155.048 27.1711C153.897 27.1188 152.813 27.0695 151.856 27.0695C151.093 27.0695 150.128 26.9826 149.105 26.8905C146.865 26.6888 144.351 26.4623 143.085 27.0695C142.243 27.4737 140.825 27.7676 139.381 28.0669C137.419 28.4734 135.408 28.8901 134.725 29.6073C134.334 30.0171 133.249 30.0351 132.242 30.0518C131.624 30.062 131.036 30.0717 130.656 30.1713C129.882 30.3744 129.136 30.6066 128.395 30.8372C127.503 31.1149 126.617 31.3908 125.692 31.6125C124.137 31.9854 122.334 32.1106 120.48 32.2392C117.359 32.4559 114.093 32.6826 111.621 34.1189C111.035 34.4593 110.633 34.893 110.225 35.333C109.791 35.8016 109.35 36.2778 108.673 36.6567C106.72 37.7493 104.595 38.2943 102.421 38.8517C101.647 39.05 100.868 39.2498 100.088 39.4764C98.5592 39.9207 97.2544 40.7476 95.9152 41.5962C94.4496 42.525 92.9428 43.4799 91.0558 43.988C89.699 44.3533 88.3263 44.716 86.9458 45.0808C79.6179 47.0171 72.0699 49.0115 65.5263 51.758C63.1302 52.7636 61.0029 54.074 58.8684 55.3889C58.0096 55.9179 57.149 56.448 56.27 56.9589C55.3383 57.5003 54.5767 58.0901 53.8046 58.6882L53.6114 58.8376C53.503 58.9215 53.394 59.0054 53.2841 59.0893C52.7418 59.5031 52.0216 59.6195 51.3046 59.7354C50.3461 59.8903 49.3935 60.0442 48.8798 60.9065C48.6267 61.3315 48.6308 61.7437 48.6348 62.1487C48.64 62.6832 48.6452 63.2049 48.0587 63.7262C47.8669 63.8968 47.6733 64.0721 47.4778 64.2493C45.9701 65.6154 44.3267 67.1043 42.1616 67.5486C38.2727 68.3465 35.2637 68.8018 31.263 68.8018C29.044 68.8018 28.4416 69.5459 27.7296 70.4251C27.2915 70.9662 26.8118 71.5586 25.8884 72.0602C25.0507 72.5152 24.362 73.2136 23.6781 73.9074C23.2549 74.3365 22.8336 74.7638 22.3799 75.1306C21.4146 75.9108 20.2578 76.4658 19.1118 77.0156C17.9871 77.5553 16.8728 78.0899 15.9602 78.8275C15.3735 79.3018 14.9054 79.8327 14.444 80.356C13.594 81.3201 12.766 82.2593 11.2574 82.7752C10.7669 82.9429 10.185 83.0406 9.60848 83.1374C8.92837 83.2516 8.25576 83.3646 7.74899 83.5898C6.83675 83.9952 5.74914 84.3593 4.62292 84.7363C3.0302 85.2695 1.36025 85.8285 5.34672e-05 86.5668Z" fill="#D49F58"/>
</svg>
