<svg width="28" height="28" viewBox="0 0 28 28" fill="none" xmlns="http://www.w3.org/2000/svg">
<path d="M7.73277 2.24257C7.66171 2.23797 7.58877 2.22665 7.51353 2.20942L7.6273 2.29591C7.55687 2.33151 7.48691 2.36712 7.41805 2.4039C7.37969 2.4244 7.34005 2.44919 7.30059 2.47386L7.30057 2.47387L7.30056 2.47388C7.24904 2.50608 7.19783 2.5381 7.15019 2.56013C7.04328 2.60956 6.96053 2.68803 6.87726 2.767C6.81769 2.82349 6.75785 2.88023 6.68872 2.92677C6.60345 2.98417 6.51393 3.03091 6.42421 3.07776C6.33027 3.12681 6.2361 3.17598 6.14636 3.23762C6.03723 3.31259 5.96435 3.30513 5.86657 3.21371C5.71053 3.06782 5.56386 3.17252 5.41478 3.27895L5.39449 3.29341C5.27678 3.37703 5.17504 3.47963 5.07283 3.58271C4.9711 3.68531 4.8689 3.78838 4.75003 3.87367C4.70618 3.90512 4.66532 3.93588 4.62563 3.96577L4.62563 3.96577C4.50767 4.05458 4.40006 4.1356 4.25541 4.20365C4.19136 4.23377 4.13615 4.24728 4.07593 4.26202L4.07587 4.26204C4.0568 4.2667 4.03723 4.27149 4.01672 4.27697C3.96635 4.29043 3.92098 4.32473 3.87497 4.35951C3.82618 4.3964 3.77666 4.43384 3.71968 4.44754C3.58729 4.47937 3.51813 4.6235 3.45591 4.75318L3.43723 4.79187C3.40408 4.85962 3.34129 4.92325 3.28203 4.9833C3.25182 5.01391 3.22252 5.0436 3.19854 5.07243C3.12053 5.16621 3.06174 5.27136 3.00197 5.37829C2.97463 5.42718 2.94709 5.47644 2.91741 5.52516C2.72035 5.84862 2.51144 6.12853 2.28886 6.42582C2.19956 6.54511 2.11518 6.671 2.03093 6.7967L2.03092 6.79672L1.97061 6.88652L1.94642 6.92201C1.87583 7.02496 1.8327 7.08788 1.8327 7.24041C1.8327 7.33918 1.82027 7.41039 1.79822 7.50503C1.78761 7.55061 1.78476 7.58985 1.78211 7.62637C1.77728 7.69284 1.77311 7.75032 1.72396 7.82066C1.68903 7.87066 1.65332 7.91885 1.61774 7.96685L1.61773 7.96686C1.58013 8.01761 1.54269 8.06813 1.50649 8.12035C1.46092 8.18609 1.39669 8.22798 1.33338 8.26928C1.30015 8.29095 1.26718 8.31245 1.2373 8.33715C1.17601 8.3878 1.12748 8.50825 1.08899 8.60379L1.08898 8.6038C1.07998 8.62615 1.07153 8.64713 1.06359 8.66553L1.06126 8.67093C0.980772 8.85752 0.909473 9.02282 0.859374 9.22666C0.846174 9.28037 0.835263 9.33534 0.824343 9.39037C0.803428 9.49576 0.782477 9.60133 0.745333 9.69851C0.738102 9.71743 0.729495 9.74881 0.719312 9.78593C0.685102 9.91065 0.633101 10.1002 0.555707 10.1002C0.451149 10.1002 0.434918 10.3362 0.426097 10.4645C0.424575 10.4866 0.423273 10.5055 0.421775 10.5195C0.412356 10.6072 0.383816 10.6903 0.355108 10.7738C0.330684 10.8449 0.30614 10.9164 0.293148 10.9913C0.271154 11.1182 0.250002 11.235 0.209606 11.3564C0.0849592 11.731 0.0729926 12.1449 0.061192 12.553C0.0553956 12.7535 0.0496393 12.9526 0.0305887 13.145C-0.0116968 13.572 -0.00108441 14.0171 0.00940187 14.457C0.0140403 14.6516 0.0186541 14.8451 0.0186541 15.0356C0.0186541 15.2477 0.0246555 15.4602 0.0306398 15.672C0.0365899 15.8827 0.0425232 16.0927 0.0425232 16.3013C0.0425232 16.333 0.042274 16.3646 0.0420251 16.3963C0.0408056 16.5513 0.0395925 16.7055 0.0677182 16.8576C0.0728658 16.8855 0.081292 16.9086 0.0895621 16.9313C0.102024 16.9656 0.11413 16.9988 0.11413 17.0457C0.11413 17.131 0.123934 17.2076 0.161868 17.2801C0.220919 17.3928 0.27521 17.5138 0.32904 17.6338L0.329051 17.6338L0.329121 17.634C0.356838 17.6958 0.384433 17.7573 0.412493 17.8173C0.485125 17.9725 0.621876 18.1731 0.764963 18.383L0.764971 18.383C0.883115 18.5563 1.00558 18.7359 1.09983 18.9016L1.02115 18.9092C1.02115 18.9678 1.04841 19.0289 1.07688 19.0927C1.10698 19.1602 1.13845 19.2308 1.1405 19.3046C1.14601 19.5034 1.23827 19.7113 1.32349 19.8753C1.34064 19.9082 1.35777 19.9427 1.37519 19.9777L1.3752 19.9778C1.44237 20.1128 1.5139 20.2567 1.60727 20.3583C1.63357 20.3869 1.66478 20.4316 1.69901 20.4806C1.78252 20.6003 1.884 20.7456 1.97591 20.7456C2.06619 20.7456 2.16769 20.8812 2.25334 20.9956C2.29001 21.0446 2.32378 21.0897 2.35251 21.1187C2.43098 21.1976 2.4934 21.3294 2.54649 21.4415L2.56734 21.4853C2.57928 21.5102 2.58509 21.5368 2.59086 21.5633C2.59634 21.5885 2.60179 21.6135 2.61242 21.6367C2.62922 21.6734 2.65219 21.7052 2.67521 21.737C2.69653 21.7665 2.71789 21.796 2.73442 21.8296C2.75666 21.8748 2.77114 21.9207 2.78515 21.9652C2.81071 22.0463 2.83473 22.1225 2.9015 22.1803C2.94364 22.2168 2.95604 22.2924 2.96694 22.3588C2.97094 22.3832 2.97474 22.4063 2.97974 22.4258C2.98743 22.4559 2.99383 22.4883 3.00037 22.5214C3.02208 22.6314 3.04525 22.7488 3.12163 22.81C3.14459 22.8284 3.16765 22.8404 3.19027 22.8522L3.1903 22.8523C3.2248 22.8703 3.25826 22.8877 3.28871 22.9264C3.3397 22.9911 3.38112 23.0706 3.42231 23.1497C3.45188 23.2065 3.48134 23.263 3.51414 23.3137C3.54092 23.3551 3.5614 23.4119 3.58235 23.47C3.61248 23.5535 3.64358 23.6397 3.69581 23.6868C3.74012 23.7267 3.77069 23.7722 3.80079 23.817C3.83356 23.8658 3.86578 23.9138 3.91461 23.953C3.93749 23.9713 3.96905 23.9775 4.00151 23.9839L4.00152 23.9839C4.03446 23.9904 4.06832 23.997 4.09495 24.0167C4.14511 24.0538 4.18202 24.0883 4.22491 24.1379C4.27248 24.1929 4.319 24.1914 4.37687 24.1896L4.37708 24.1896C4.38778 24.1892 4.399 24.1889 4.41055 24.1889C4.43006 24.1889 4.443 24.1886 4.45118 24.1884C4.45997 24.1881 4.46328 24.188 4.46338 24.1887C4.46338 24.1887 4.4623 24.1897 4.46049 24.1907C4.45294 24.1949 4.43354 24.2056 4.4384 24.2319C4.45457 24.3194 4.73115 24.3538 4.85288 24.3689C4.87478 24.3716 4.89177 24.3737 4.9012 24.3754C4.95802 24.3855 5.02727 24.3901 5.10112 24.3951L5.10119 24.3951C5.28901 24.4077 5.50661 24.4223 5.62522 24.5332C5.70609 24.6088 5.73187 24.7463 5.74722 24.8616C5.76485 24.9941 5.84704 24.9933 5.93937 24.9925L5.96204 24.9923C5.97312 24.9923 5.98377 24.9921 5.99408 24.992L5.99427 24.992C6.05996 24.9908 6.11178 24.99 6.17156 25.037C6.20183 25.0607 6.251 25.0989 6.28692 25.1055C6.32022 25.1117 6.35549 25.1162 6.39158 25.1208L6.39166 25.1208H6.39168C6.50501 25.1352 6.62649 25.1507 6.72054 25.2219C6.84907 25.3192 6.95626 25.4522 7.06319 25.5849C7.18369 25.7344 7.30386 25.8836 7.45385 25.9807C7.47009 25.9912 7.48709 26.0019 7.50461 26.013C7.69352 26.1327 7.94317 26.2909 7.94317 26.5705C7.94317 26.7543 8.09834 26.7543 8.25223 26.7543C8.35013 26.7543 8.4475 26.7543 8.50409 26.8016C8.53258 26.8254 8.56032 26.8502 8.58805 26.875L8.58814 26.8751C8.63045 26.9129 8.67277 26.9507 8.71759 26.9849C8.78279 27.0348 8.87653 27.0219 8.96942 27.009C9.03957 26.9993 9.10925 26.9897 9.16579 27.0073C9.3053 27.0505 9.43497 27.0583 9.5782 27.0583C9.69552 27.0583 9.76764 27.1538 9.84276 27.2534C9.88297 27.3067 9.92404 27.3611 9.97336 27.4026C10.054 27.4704 10.1709 27.5517 10.2691 27.5732C10.2882 27.5773 10.3073 27.5767 10.3261 27.5761H10.3261C10.361 27.575 10.3949 27.5739 10.4255 27.6035C10.4803 27.6561 10.6035 27.6355 10.7076 27.6181L10.7076 27.6181C10.7532 27.6105 10.7951 27.6035 10.826 27.6035C11.0076 27.6035 11.1704 27.6393 11.3433 27.6775L11.3909 27.6879C11.4971 27.7112 11.6073 27.7079 11.7179 27.7046C11.8235 27.7015 11.9294 27.6984 12.0327 27.7182C12.0766 27.7267 12.1085 27.7514 12.1399 27.7758C12.1772 27.8047 12.2138 27.833 12.2688 27.833C12.301 27.833 12.3342 27.8321 12.3678 27.8312H12.3678C12.5179 27.8271 12.6776 27.8228 12.8125 27.8968C12.825 27.9037 12.8374 27.9107 12.8497 27.9176C12.9446 27.9712 13.0331 28.0211 13.144 27.9908C13.459 27.9048 13.789 27.8904 14.112 27.8904C15.1711 27.8904 16.1931 27.8198 17.2242 27.5206C17.4013 27.4692 17.5814 27.4238 17.762 27.3784C18.2142 27.2645 18.6697 27.1499 19.09 26.9371C19.5641 26.6971 20.0876 26.5195 20.603 26.486C20.708 26.4792 20.8098 26.4459 20.9109 26.4128C21.0118 26.3799 21.1121 26.3471 21.2143 26.3409C21.2926 26.3362 21.3598 26.2776 21.4266 26.2193C21.467 26.1839 21.5073 26.1487 21.5498 26.1257C21.5855 26.1064 21.6211 26.0846 21.657 26.0625C21.7379 26.0128 21.8201 25.9623 21.9065 25.9392C21.9678 25.9229 22.0566 25.8939 22.1094 25.8515C22.1574 25.8131 22.1866 25.7518 22.2163 25.6895C22.2489 25.621 22.2821 25.5512 22.3415 25.5088C22.6867 25.2627 23.0403 25.0292 23.397 24.8074C23.5384 24.7195 23.6738 24.6269 23.8105 24.5333C23.8594 24.4999 23.9084 24.4663 23.958 24.4328C24.0013 24.4035 24.05 24.3746 24.1 24.3449C24.2122 24.2782 24.3312 24.2075 24.4128 24.1188C24.5851 23.9313 24.7724 23.7702 24.9606 23.6083L24.9606 23.6083L24.9614 23.6076L25.036 23.5433C25.0917 23.4952 25.1506 23.4579 25.2095 23.4207L25.2095 23.4207L25.2095 23.4207C25.2852 23.3728 25.3607 23.3251 25.4286 23.2547C25.4579 23.2243 25.4884 23.1944 25.519 23.1643C25.5784 23.1061 25.6382 23.0474 25.6911 22.9838C25.718 22.9515 25.7412 22.9188 25.7636 22.8872C25.8291 22.7949 25.8882 22.7117 26.012 22.6745C26.0323 22.6684 26.0562 22.6632 26.082 22.6577C26.1944 22.6333 26.3413 22.6015 26.3687 22.4529C26.3887 22.345 26.441 22.2574 26.4935 22.1694L26.4935 22.1693C26.532 22.1047 26.5707 22.0399 26.5968 21.9667C26.6336 21.8634 26.6992 21.7996 26.7648 21.7356C26.8117 21.69 26.8586 21.6443 26.8952 21.5841C26.9312 21.5248 26.9827 21.4869 27.0344 21.4487L27.0344 21.4487C27.0992 21.4009 27.1644 21.3528 27.2002 21.2621C27.2093 21.239 27.2084 21.2156 27.2076 21.1929C27.2065 21.1645 27.2054 21.1371 27.224 21.1123C27.2391 21.0922 27.2504 21.0707 27.2617 21.0496L27.2617 21.0495C27.2785 21.0178 27.295 20.9865 27.3235 20.9608C27.3973 20.8943 27.4442 20.718 27.4442 20.6085C27.4442 20.4926 27.5099 20.4218 27.5743 20.3524C27.5906 20.3349 27.6068 20.3174 27.6219 20.2993C27.793 20.0936 27.8261 19.9059 27.8261 19.6266L27.826 19.5914C27.8255 19.4507 27.8252 19.357 27.8977 19.2312C27.9556 19.1307 27.9932 19.0499 27.9932 18.9236V18.1345C27.9932 18.0861 27.9948 18.0366 27.9965 17.9868C28.0001 17.882 28.0037 17.7757 27.9918 17.6754C27.9562 17.3758 27.6981 16.5625 27.5635 16.3268L27.5161 16.3314C27.5154 16.0912 27.5088 15.8559 27.4733 15.6158C27.4339 15.349 27.4736 15.0766 27.5127 14.8082V14.8082L27.5127 14.8081C27.5305 14.6862 27.5482 14.565 27.5582 14.4457C27.5819 14.1642 27.6281 13.8958 27.6747 13.6249L27.6748 13.6247C27.6957 13.503 27.7168 13.3807 27.7359 13.2565C27.7849 12.9384 27.8299 12.5784 27.7969 12.2523C27.7921 12.2046 27.7865 12.1557 27.7809 12.1058C27.7443 11.7824 27.7034 11.4205 27.8261 11.1332C27.8984 10.964 27.8488 10.802 27.7972 10.6335L27.7972 10.6335C27.789 10.6068 27.7808 10.58 27.773 10.5529C27.7164 10.3564 27.6338 10.1599 27.5396 9.98545L27.5386 9.98346C27.4729 9.86183 27.4203 9.76444 27.4203 9.61881L27.4203 9.58964V9.58962C27.4204 9.23892 27.4205 8.92399 27.2718 8.61452C27.2544 8.57843 27.2354 8.54216 27.2161 8.50549L27.2161 8.50547C27.1648 8.4078 27.112 8.30736 27.0861 8.20006C27.0577 8.08255 27.0596 7.95849 27.0614 7.83619C27.0618 7.80643 27.0623 7.77677 27.0623 7.74733C27.0623 7.72017 27.0625 7.69227 27.0627 7.66383C27.0644 7.44223 27.0664 7.18806 26.9668 7.00129C26.8843 6.84666 26.7662 6.73684 26.6489 6.62783C26.5365 6.52328 26.4249 6.41947 26.3462 6.27757C26.3146 6.22056 26.3045 6.15042 26.2944 6.08025C26.2858 6.02122 26.2773 5.96218 26.256 5.91093C26.2062 5.79124 26.1055 5.70733 26.0058 5.62426C25.9361 5.56611 25.8668 5.50838 25.8158 5.43907C25.6402 5.20044 25.4335 5.01898 25.2005 4.87157C25.1632 4.848 25.125 4.82669 25.0866 4.80528L25.0866 4.80528L25.0865 4.80526C25.0183 4.76721 24.9495 4.72888 24.8849 4.67709C24.8363 4.63815 24.7802 4.60989 24.7239 4.58147C24.6487 4.54356 24.5729 4.50536 24.5136 4.44117C24.4609 4.38422 24.3827 4.3467 24.309 4.3114C24.269 4.29221 24.2304 4.27369 24.198 4.25306C24.18 4.2416 24.1561 4.23586 24.1319 4.23005L24.1319 4.23004C24.1114 4.22512 24.0907 4.22015 24.0733 4.21162C24.0197 4.18537 23.9903 4.13758 23.9601 4.08853C23.9437 4.0619 23.9271 4.03489 23.9062 4.01076C23.8738 3.97323 23.8342 3.94602 23.7943 3.91857C23.7536 3.89059 23.7125 3.86236 23.6782 3.82266C23.662 3.804 23.6471 3.78227 23.6321 3.76044L23.632 3.76042C23.6077 3.72512 23.5833 3.68958 23.5535 3.66643C23.5207 3.64091 23.5037 3.61077 23.4881 3.58324C23.4628 3.5385 23.4414 3.50065 23.3626 3.50065C23.2204 3.50065 23.1135 3.47748 22.9754 3.43688C22.8984 3.41428 22.84 3.33852 22.7865 3.26902L22.7658 3.2424C22.745 3.21588 22.7452 3.18933 22.7454 3.16214C22.7455 3.14153 22.7457 3.12056 22.7367 3.09893C22.7184 3.05506 22.6846 3.04723 22.6505 3.03935C22.625 3.03345 22.5994 3.02753 22.5802 3.00647L22.5686 2.99367L22.5617 2.98606C22.5343 2.95564 22.5072 2.92562 22.4741 2.89808C22.4429 2.87208 22.4123 2.84512 22.3818 2.8182C22.3059 2.7513 22.2304 2.68462 22.1452 2.63346C21.9128 2.49372 21.6446 2.39224 21.3842 2.29372C21.3352 2.27516 21.2864 2.2567 21.2382 2.23812C21.1712 2.21227 21.1176 2.16368 21.0656 2.11642C21.018 2.07324 20.9716 2.03117 20.9173 2.00857C20.8896 1.99704 20.8619 1.98687 20.8344 1.97678C20.7572 1.94842 20.6817 1.92069 20.6123 1.8651C20.5883 1.84582 20.5726 1.82161 20.5572 1.79777C20.5427 1.77537 20.5284 1.7533 20.5076 1.73598C20.4197 1.66289 20.3037 1.65136 20.1928 1.64034C20.1269 1.63379 20.0629 1.62742 20.0076 1.60845C19.9748 1.59717 19.9433 1.58314 19.9116 1.56901C19.8853 1.55727 19.8588 1.54546 19.8313 1.53512C19.8178 1.53005 19.7969 1.52956 19.7749 1.52904C19.7392 1.52819 19.7006 1.52728 19.6867 1.50643C19.6624 1.46994 19.591 1.44873 19.5213 1.42805C19.47 1.41282 19.4196 1.39787 19.3897 1.3773C19.3447 1.34641 19.2554 1.35793 19.1758 1.36819C19.1395 1.37288 19.1052 1.3773 19.0781 1.3773C19.0441 1.3773 19.0056 1.37981 18.9647 1.38247C18.8159 1.39215 18.6359 1.40386 18.5291 1.30397C18.4677 1.24655 18.403 1.22259 18.336 1.19774L18.336 1.19773C18.2977 1.18351 18.2585 1.169 18.2188 1.14775C18.11 1.0896 18.0199 1.05256 17.8966 1.03138C17.8243 1.01898 17.7717 0.938646 17.724 0.865996C17.7055 0.837703 17.6877 0.810575 17.6698 0.78908C17.6269 0.737492 17.5763 0.723444 17.5279 0.709983C17.4834 0.697606 17.4406 0.685726 17.4072 0.645611C17.31 0.528751 17.2265 0.487795 17.0956 0.487795C17.0424 0.487795 16.9901 0.495096 16.9384 0.502332C16.8876 0.509441 16.8372 0.516489 16.7866 0.516489C16.7766 0.516489 16.7597 0.514931 16.7392 0.513046C16.6697 0.50663 16.5589 0.496418 16.536 0.530836C16.4426 0.671275 16.2593 0.641511 16.1083 0.616972L16.1083 0.616967C16.0777 0.612001 16.0484 0.607247 16.0215 0.604164C15.9107 0.591478 15.7976 0.584527 15.6838 0.577532C15.4075 0.560552 15.127 0.543316 14.8652 0.44316C14.8304 0.429837 14.7925 0.413491 14.7531 0.396448C14.6337 0.344888 14.4995 0.286938 14.3891 0.286938C14.2831 0.286938 14.1487 0.243617 14.0536 0.18651C13.7673 0.0144155 13.4994 0 13.1811 0C13.0642 0 12.9477 0.00716032 12.831 0.0143272L12.831 0.0143275C12.7141 0.0215074 12.5971 0.0286938 12.4796 0.0286938C12.3198 0.0286938 12.1757 0.0790715 12.0272 0.130984C11.9725 0.150097 11.9172 0.169418 11.8603 0.18651C11.5176 0.289502 11.2226 0.47673 10.9214 0.667871L10.8181 0.733287C10.7092 0.801854 10.5963 0.841531 10.4827 0.881459C10.4124 0.906183 10.3418 0.931002 10.2717 0.962837C10.2447 0.975122 10.2178 0.987533 10.1911 0.999895L10.1911 0.999909C10.0708 1.05552 9.95269 1.11013 9.8275 1.14775C9.69286 1.18822 9.54296 1.24461 9.41111 1.30557C9.37002 1.32457 9.32315 1.33603 9.27617 1.34751L9.27616 1.34751C9.20823 1.36411 9.14009 1.38077 9.08888 1.42034C8.97003 1.51219 8.86042 1.61694 8.75077 1.72173L8.75077 1.72173C8.63093 1.83626 8.51103 1.95083 8.379 2.04864C8.30146 2.02498 8.23269 2.00857 8.18186 2.00857C8.10859 2.00857 8.05116 2.05131 7.99355 2.09419L7.99355 2.09419C7.96548 2.11508 7.93738 2.136 7.90737 2.15204C7.8493 2.18306 7.79098 2.21302 7.73277 2.24257Z" fill="#68837D"/>
</svg>
