<svg width="375" height="65" viewBox="0 0 375 65" fill="none" xmlns="http://www.w3.org/2000/svg">
<path d="M-463.232 43.7156C-474.731 42.321 -484.783 41.2837 -497 41.2837V0H870.212C870.212 0 871.984 45.2608 870.212 42.4668C868.44 39.6728 853.207 41.395 849.535 41.2837C841.472 41.0392 833.294 39.8447 824.855 40.1006C806.346 40.6618 787.673 42.4668 768.91 42.4668C761.068 42.4668 755.163 44.151 747.732 45.4246C738.482 47.0098 727.755 46.0161 718.3 46.0161C700.405 46.0161 683.48 48.3823 665.439 48.3823H618.915C602.878 48.3823 586.518 50.7485 570.723 50.7485C557.037 50.7485 543.449 53.1147 529.535 53.1147C515.939 53.1147 503.025 54.2978 489.681 54.2978C476.412 54.2978 461.834 56.664 449.243 56.664H404.97C388.517 56.664 372.532 57.8471 356.195 57.8471C342.28 57.8471 328.91 59.7994 315.257 60.2133C302.428 60.6023 289.493 60.2133 276.653 60.2133C263.644 60.2133 251.595 63.7626 238.383 63.7626C229.269 63.7626 220.482 65.305 211.369 64.9457C204.559 64.6773 197.934 62.5795 191.109 62.5795C185.501 62.5795 178.143 63.6311 173.183 61.3964C169.664 59.8115 161.609 59.2172 157.341 59.0302C131.981 57.9196 106.719 57.8471 81.5515 57.8471C74.9714 57.8471 70.366 54.2978 63.6254 54.2978C57.5289 54.2978 52.3442 53.1147 46.2831 53.1147C35.1373 53.1147 22.804 51.9316 12.5155 51.9316C-11.8343 51.9316 -33.856 54.2978 -58.1046 54.2978C-92.1458 54.2978 -125.978 50.7485 -159.991 50.7485C-173.999 50.7485 -188.532 49.9098 -202.18 51.8659C-216.13 53.8655 -230.868 50.7485 -244.535 50.7485C-257.325 50.7485 -268.838 46.0161 -281.638 46.0161H-322.576C-329.282 46.0161 -336.406 45.3968 -342.753 46.9363C-348.923 48.433 -355.179 46.3461 -361.179 48.9739C-370.309 52.9721 -386.116 47.6087 -394.947 47.1992C-408.42 46.5744 -421.666 46.0161 -435.468 46.0161H-451.143C-455.721 46.0161 -458.865 44.2453 -463.232 43.7156Z" fill="#CCDEDE"/>
</svg>
