<svg width="375" height="193" viewBox="0 0 375 193" fill="none" xmlns="http://www.w3.org/2000/svg">
<path fill-rule="evenodd" clip-rule="evenodd" d="M375 180.798V0H0V149.221C2.86845 151.283 5.73937 153.331 9.38476 154.8C9.77307 154.956 10.1795 155.117 10.5982 155.283L10.6303 155.295L10.6351 155.297C15.2896 157.14 21.4406 159.574 21.2028 163.064C21.0465 165.359 24.9531 165.645 28.8276 165.929H28.8278C31.2926 166.109 33.7443 166.289 35.1287 166.984C35.8265 167.334 36.5047 167.695 37.1825 168.055C38.2156 168.605 39.2488 169.155 40.3481 169.665C41.9473 170.408 44.3181 170.419 46.6678 170.431H46.6682C48.4426 170.439 50.2049 170.447 51.6137 170.77C55.0893 171.568 58.3474 171.903 61.9535 172.167C64.9074 172.384 66.642 173.71 68.4485 175.091C69.4157 175.83 70.4034 176.585 71.6099 177.194C73.5812 178.189 76.4571 179.42 78.9101 179.868C79.3867 179.955 79.8681 179.983 80.3419 180.01H80.3422L80.3436 180.01C81.2232 180.061 82.0764 180.11 82.8239 180.535C84.1582 181.293 87.276 181.263 89.9122 181.238H89.9123L89.9127 181.238L89.913 181.238H89.9145C91.0673 181.226 92.1278 181.216 92.9066 181.273C97.4775 181.608 101.545 182.356 105.867 183.151L105.868 183.151L107.057 183.369C109.712 183.855 112.488 184.017 115.275 184.18C117.936 184.336 120.607 184.492 123.191 184.93C124.288 185.117 125.071 185.484 125.841 185.846C126.755 186.276 127.651 186.697 129.036 186.798C129.849 186.858 130.684 186.908 131.531 186.958C135.314 187.184 139.338 187.425 142.67 188.597C142.981 188.706 143.287 188.816 143.591 188.925C145.934 189.769 148.12 190.555 150.937 190.382C158.942 189.888 167.262 190.317 175.394 190.913C202.059 192.865 227.85 193.868 254.067 192.034C258.567 191.719 263.136 191.485 267.719 191.251L267.723 191.251L267.726 191.25C279.21 190.663 290.775 190.071 301.538 188.191C313.679 186.069 327.009 184.816 340.015 185.349C342.664 185.457 345.254 185.229 347.829 185.003L347.829 185.003L347.83 185.003C350.398 184.777 352.95 184.553 355.53 184.665C357.505 184.75 359.246 184.142 360.976 183.537L360.977 183.537C362.025 183.171 363.069 182.806 364.16 182.597C365.073 182.422 365.989 182.215 366.911 182.006C368.99 181.534 371.102 181.055 373.299 180.927C373.809 180.897 374.395 180.855 375 180.798Z" fill="#CCDEDE"/>
</svg>
