<svg xmlns="http://www.w3.org/2000/svg" xmlns:xlink="http://www.w3.org/1999/xlink" xmlns:inkscape="http://www.inkscape.org/namespaces/inkscape" version="1.1" width="1100" height="1100" viewBox="0 0 1100 1100">
<defs>
<clipPath id="clip_1">
<path transform="matrix(1,0,0,-1,0,1100)" d="M0 1100H1100V0H0Z"/>
</clipPath>
</defs>
<g inkscape:groupmode="layer" inkscape:label="Camada 1">
<g clip-path="url(#clip_1)">
<path transform="matrix(1,0,0,-1,719.2937,457.1214)" d="M0 0C0 0 6.378 77.8 54.719 109.008 103.06 140.215 124.814 180.866 124.814 180.866 124.814 180.866 165.426 134.346 140.485 88.662 115.545 42.977 136.072 27.828 120.294 4.057 79.516-57.379 36.351-60.949 36.351-60.949" fill="#635f25"/>
<path transform="matrix(1,0,0,-1,750.905,454.40034)" d="M0 0C0 0-11.739 1.093 17.969 23.861 47.678 46.63 83.538 97.56 83.538 97.56 83.538 97.56 66.352 13.704 36.397-3.983" fill="#a09e4c"/>
<path transform="matrix(1,0,0,-1,705.0233,493.48139)" d="M0 0C0 0-51.306 36.218-53.174 82.471-55.043 128.723-74.321 160.413-74.321 160.413-74.321 160.413-25.487 169.542-4.022 133.588 17.442 97.634 36.33 105.666 46.354 85.017 72.26 31.65 57.093 .28 57.093 .28" fill="#635f25"/>
<path transform="matrix(1,0,0,-1,708.3244,470.8169)" d="M0 0C0 0-5.555-7.688-9.191 22.204-12.827 52.097-33.463 97.762-33.463 97.762-33.463 97.762 17.622 51.581 17.635 23.594" fill="#a09e4c"/>
<path transform="matrix(1,0,0,-1,636.2173,590.4043)" d="M0 0-20.676 128.849C-21.962 136.865-15.77 144.129-7.652 144.129H232.449C241.037 144.129 247.335 136.052 245.241 127.722L189.924-92.244C188.449-98.107 183.177-102.218 177.132-102.218H49.607C44.22-102.218 39.374-98.941 37.366-93.942L.783-2.825C.418-1.915 .155-.968 0 0" fill="#a09e4c"/>
<path transform="matrix(1,0,0,-1,90.7069,179.95819)" d="M0 0C-20.558-3.373-29.644-27.727-16.402-43.81 29.348-99.377 106.274-211.322 90.901-320.76 69.278-474.684 287.908-564.831 403.229-584.051 495.746-599.47 543.421-762.113 558.658-825.833 562.035-839.956 576.042-848.815 590.268-845.907L965.152-769.273C982.581-765.71 991.83-746.575 983.822-730.69 945.652-654.974 840.031-466.914 715.958-429.592 559.794-382.618 451.68-357.81 446.875-258.497 442.887-176.068 359.458-16.009 331.204 36.035 325.727 46.123 314.484 51.601 303.156 49.742Z" fill="#b52a3c"/>
<path transform="matrix(1,0,0,-1,443.5616,785.952)" stroke-width="5.406" stroke-linecap="butt" stroke-miterlimit="10" stroke-linejoin="miter" fill="none" stroke="#b52a3c" d="M0 0C0 0 41.144-31.95 25.528-114.837 17.427-157.836 12.881-192.106 10.383-215.132 9.231-225.746-4.651-228.921-10.352-219.894L-208.146 93.33"/>
<path transform="matrix(1,0,0,-1,128.6458,381.28334)" stroke-width="5.406" stroke-linecap="butt" stroke-miterlimit="10" stroke-linejoin="miter" fill="none" stroke="#b52a3c" d="M0 0C0 0-31.147 14.656-47.364-32.193-52.139-45.988-46.521-197.719-52.37-292.467-54.181-321.816-35.396-348.465-7.156-356.66L452.161-527.114"/>
<path transform="matrix(1,0,0,-1,140.8566,176.44092)" stroke-width="5.406" stroke-linecap="butt" stroke-miterlimit="10" stroke-linejoin="miter" fill="none" stroke="#b52a3c" d="M0 0C-6.214-.801-93.79 2.002-99.797-47.379-102.134-66.591 11.921-192.541 3.111-276.22-5.698-359.898-31.725-438.59 124.439-536.293 280.603-633.996 340.666-594.554 396.725-655.218 440.659-702.76 476.289-853.667 485.419-865.84 495.629-879.454 526.662-883.458 526.662-883.458 526.662-883.458 955.116-822.435 946.307-779.19 937.497-735.944 906.619-692.845 906.619-692.845"/>
<path transform="matrix(1,0,0,-1,463.545,198.2868)" d="M0 0C-6.592-.382-13.334-.086-19.95-.518-26.768-1.545-33.586-2.564-40.469-3.417-52.382-4.893-63.407-2.939-75.391-1.134-80.35 .257-85.037 2.115-89.459 4.425-129.069 1.865-168.697-1.885-208.342-.736-224.004-.282-237.881 4.529-250.084 13.15-264.35-11.43-264.876-41.467-260.235-84.22-255.95-123.693-214.018-150.618-187.065-164.002-172.656-171.157-156.845-174.984-140.761-175.302-117.228-175.766-79.971-173.755-46.979-159.941 6.2-137.673 4.198-128.913 19.677-68.625 19.677-68.625 2.492-29.57 2.736 .175 1.824 .116 .91 .053 0 0" fill="#67052f"/>
<path transform="matrix(1,0,0,-1,328.0893,356.78089)" d="M0 0C-16.19 .319-32.104 4.172-46.607 11.374-73.737 24.845-115.942 51.946-120.255 91.677-126.662 150.701-123.317 185.658-87.865 215.367-61.333 237.601-15.445 233.145-2.141 244.906 7.87 253.756-5.568 285.092-12.833 300.062-13.424 301.28-11.814 302.354-10.915 301.341L15.412 271.656C15.975 271.021 17.007 271.183 17.348 271.96L41.009 325.878C41.514 327.027 43.229 326.674 43.239 325.418L43.651 268.961C43.659 267.848 45.077 267.38 45.746 268.271L81.45 315.847C82.172 316.808 83.7 316.177 83.533 314.987L75.386 256.904C75.231 255.8 76.569 255.131 77.359 255.918L112.366 290.776C113.349 291.754 114.914 290.503 114.172 289.331 102.503 270.901 79.397 230.862 92.314 221.317 109.241 208.811 169.975 174.934 156.569 122.723 140.989 62.042 147.921 37.874 94.394 15.461 61.187 1.557 23.686-.467 0 0" fill="#b52a3c"/>
<path transform="matrix(1,0,0,-1,441.3362,278.13813)" d="M0 0C13.97 17.684 23.386 38.293 20.014 58.909 17.02 77.212 3.005 95.796-12.694 108.198-30.068 121.923-48.723 127.741-67.83 123.776-85.438 120.122-108.842 111.986-121.49 95.976-135.979 77.636-141.692 55.867-138.799 35.578-136.426 18.936-123.242-.81-108.198-12.694-106.339-14.163-104.432-15.533-102.485-16.803-94.997-21.688-92.581-31.502-97.078-39.229-100.133-44.478-103.717-50.018-107.258-54.514-109.234-57.023-106.903-60.625-103.797-59.878-93.353-57.366-76.9-52.767-60.607-45.601-38.698-35.963-17.769-20.755-6.52-7.267-6.519-7.267-6.519-7.266-6.518-7.265-4.224-5.011-2.046-2.589 0 0" fill="#ebd9ca"/>
<path transform="matrix(1,0,0,-1,349.8145,260.3025)" d="M0 0C0 0 .432 .126 .648 .206 2.12 .751 3.46 1.549 4.098 2.652 4.664 3.631 6.688 5.005 6.322 5.993 5.917 7.087 3.58 8.05 2.373 8.308 1.261 8.545-.852 8.348-2.185 7.855-3.712 7.289-4.894 6.345-5.546 5.27-6.08 4.388-6.145 3.095-5.794 2.148-5.751 2.031-5.701 1.917-5.645 1.808-5.645 1.808-4.456 .401-3.766-.049-3.15-.451-.272-.242 0 0" fill="#b52a3c"/>
<path transform="matrix(1,0,0,-1,394.8714,236.26502)" d="M0 0C0 0 .432 .126 .648 .206 2.12 .751 3.46 1.549 4.098 2.652 4.664 3.631 6.688 5.005 6.322 5.993 5.917 7.087 3.58 8.05 2.373 8.308 1.261 8.545-.852 8.348-2.185 7.855-3.712 7.289-4.894 6.345-5.546 5.27-6.08 4.388-6.145 3.095-5.794 2.148-5.751 2.031-5.701 1.917-5.645 1.808-5.645 1.808-4.456 .401-3.766-.049-3.15-.451-.272-.242 0 0" fill="#b52a3c"/>
<path transform="matrix(1,0,0,-1,366.2035,265.00679)" d="M0 0C0 0 .432 .126 .648 .206 2.12 .751 3.46 1.549 4.098 2.652 4.664 3.631 6.688 5.005 6.322 5.993 5.917 7.087 3.58 8.05 2.373 8.308 1.261 8.545-.852 8.348-2.185 7.855-3.712 7.289-4.894 6.345-5.546 5.27-6.08 4.388-6.145 3.095-5.794 2.148-5.751 2.031-5.701 1.917-5.645 1.808-5.645 1.808-4.456 .401-3.766-.049-3.15-.451-.272-.242 0 0" fill="#b52a3c"/>
<path transform="matrix(1,0,0,-1,421.8204,244.32373)" d="M0 0C0 0 .432 .126 .648 .206 2.12 .751 3.46 1.549 4.098 2.652 4.664 3.631 6.688 5.005 6.322 5.993 5.917 7.087 3.58 8.05 2.373 8.308 1.261 8.545-.852 8.348-2.185 7.855-3.712 7.289-4.894 6.345-5.546 5.27-6.08 4.388-6.145 3.095-5.794 2.148-5.751 2.031-5.701 1.917-5.645 1.808-5.645 1.808-4.456 .401-3.766-.049-3.15-.451-.272-.242 0 0" fill="#b52a3c"/>
<path transform="matrix(1,0,0,-1,372.1747,279.11689)" d="M0 0C0 0 .432 .126 .648 .206 2.12 .751 3.46 1.549 4.098 2.652 4.664 3.631 6.688 5.005 6.322 5.993 5.917 7.087 3.58 8.05 2.373 8.308 1.261 8.545-.852 8.348-2.185 7.855-3.712 7.289-4.894 6.345-5.546 5.27-6.08 4.388-6.145 3.095-5.794 2.148-5.751 2.031-5.701 1.917-5.645 1.808-5.645 1.808-4.456 .401-3.766-.049-3.15-.451-.272-.242 0 0" fill="#b52a3c"/>
<path transform="matrix(1,0,0,-1,431.1592,275.48219)" d="M0 0C0 0 .432 .126 .648 .206 2.12 .751 3.46 1.549 4.098 2.652 4.664 3.631 6.688 5.005 6.322 5.993 5.917 7.087 3.58 8.05 2.373 8.308 1.261 8.545-.852 8.348-2.185 7.855-3.712 7.289-4.894 6.345-5.546 5.27-6.08 4.388-6.145 3.095-5.794 2.148-5.751 2.031-5.701 1.917-5.645 1.808-5.645 1.808-4.456 .401-3.766-.049-3.15-.451-.272-.242 0 0" fill="#b52a3c"/>
<path transform="matrix(1,0,0,-1,447.9447,261.15693)" d="M0 0C0 0 .176 .414 .251 .632 .76 2.117 .989 3.659 .539 4.851 .139 5.91 .355 8.346-.642 8.688-1.745 9.066-3.97 7.865-4.932 7.094-5.819 6.383-7.004 4.622-7.465 3.278-7.993 1.737-8.01 .224-7.59-.961-7.245-1.932-6.284-2.801-5.329-3.128-5.211-3.169-5.092-3.202-4.972-3.228-4.972-3.228-3.13-3.197-2.345-2.948-1.644-2.725 .016-.364 0 0" fill="#b52a3c"/>
<path transform="matrix(1,0,0,-1,403.8437,263.15419)" d="M0 0C0 0 .432 .126 .648 .206 2.12 .751 3.46 1.549 4.098 2.652 4.664 3.631 6.688 5.005 6.322 5.993 5.917 7.087 3.58 8.05 2.373 8.308 1.261 8.545-.852 8.348-2.185 7.855-3.712 7.289-4.894 6.345-5.546 5.27-6.08 4.388-6.145 3.095-5.794 2.148-5.751 2.031-5.701 1.917-5.645 1.808-5.645 1.808-4.456 .401-3.766-.049-3.15-.451-.272-.242 0 0" fill="#b52a3c"/>
<path transform="matrix(1,0,0,-1,404.5467,303.54054)" d="M0 0C0 0 .432 .126 .648 .206 2.12 .751 3.46 1.549 4.098 2.652 4.664 3.631 6.688 5.005 6.322 5.993 5.917 7.087 3.58 8.05 2.373 8.308 1.261 8.545-.852 8.348-2.185 7.855-3.712 7.289-4.894 6.345-5.546 5.27-6.08 4.388-6.145 3.095-5.794 2.148-5.751 2.031-5.701 1.917-5.645 1.808-5.645 1.808-4.456 .401-3.766-.049-3.15-.451-.272-.242 0 0" fill="#b52a3c"/>
<path transform="matrix(1,0,0,-1,379.2573,246.50379)" d="M0 0C0 0 .432 .126 .648 .206 2.12 .751 3.46 1.549 4.098 2.652 4.664 3.631 6.688 5.005 6.322 5.993 5.917 7.087 3.58 8.05 2.373 8.308 1.261 8.545-.852 8.348-2.185 7.855-3.712 7.289-4.894 6.345-5.546 5.27-6.08 4.388-6.145 3.095-5.794 2.148-5.751 2.031-5.701 1.917-5.645 1.808-5.645 1.808-4.456 .401-3.766-.049-3.15-.451-.272-.242 0 0" fill="#b52a3c"/>
<path transform="matrix(1,0,0,-1,317.428,224.53668)" d="M0 0C0 0 .432 .126 .648 .206 2.12 .751 3.46 1.549 4.098 2.652 4.664 3.631 6.688 5.005 6.322 5.993 5.917 7.087 3.58 8.05 2.373 8.308 1.261 8.545-.852 8.348-2.185 7.855-3.712 7.289-4.894 6.345-5.546 5.27-6.08 4.388-6.145 3.095-5.794 2.148-5.751 2.031-5.701 1.917-5.645 1.808-5.645 1.808-4.456 .401-3.766-.049-3.15-.451-.272-.242 0 0" fill="#b52a3c"/>
<path transform="matrix(1,0,0,-1,321.5453,205.33179)" d="M0 0C0 0 .061 .446 .075 .675 .175 2.242-.011 3.791-.76 4.822-1.425 5.737-1.858 8.144-2.91 8.211-4.074 8.285-5.903 6.54-6.628 5.542-7.297 4.622-7.975 2.612-8.065 1.193-8.168-.432-7.786-1.896-7.068-2.928-6.479-3.774-5.323-4.359-4.316-4.423-4.191-4.431-4.067-4.431-3.945-4.424-3.945-4.424-2.176-3.91-1.484-3.462-.867-3.062 .111-.347 0 0" fill="#b52a3c"/>
<path transform="matrix(1,0,0,-1,325.8896,205.73651)" d="M0 0C0 0 .159-.421 .256-.63 .914-2.055 1.815-3.328 2.965-3.878 3.986-4.366 5.513-6.275 6.47-5.833 7.529-5.344 8.306-2.938 8.468-1.715 8.617-.588 8.256 1.503 7.66 2.793 6.976 4.271 5.942 5.376 4.819 5.941 3.898 6.405 2.604 6.369 1.687 5.945 1.574 5.892 1.465 5.834 1.361 5.769 1.361 5.769 .051 4.474-.344 3.751-.696 3.105-.263 .252 0 0" fill="#b52a3c"/>
<path transform="matrix(1,0,0,-1,387.2732,214.45178)" d="M0 0C0 0 .159-.421 .256-.63 .914-2.055 1.815-3.328 2.965-3.878 3.985-4.366 5.513-6.275 6.47-5.833 7.529-5.344 8.306-2.938 8.468-1.715 8.617-.588 8.256 1.503 7.66 2.793 6.976 4.271 5.942 5.376 4.819 5.941 3.898 6.405 2.604 6.369 1.687 5.945 1.574 5.892 1.465 5.834 1.361 5.769 1.361 5.769 .051 4.474-.344 3.751-.696 3.105-.263 .252 0 0" fill="#b52a3c"/>
<path transform="matrix(1,0,0,-1,361.9904,200.73523)" d="M0 0C0 0 .432 .126 .648 .206 2.12 .751 3.46 1.549 4.098 2.652 4.664 3.631 6.688 5.005 6.322 5.993 5.917 7.087 3.58 8.05 2.373 8.308 1.261 8.545-.852 8.348-2.185 7.855-3.712 7.289-4.894 6.345-5.546 5.27-6.08 4.388-6.145 3.095-5.794 2.148-5.751 2.031-5.701 1.917-5.645 1.808-5.645 1.808-4.456 .401-3.766-.049-3.15-.451-.272-.242 0 0" fill="#b52a3c"/>
<path transform="matrix(1,0,0,-1,362.6531,185.61627)" d="M0 0C0 0 .432 .126 .648 .206 2.12 .751 3.46 1.549 4.098 2.652 4.664 3.631 6.688 5.005 6.322 5.993 5.917 7.087 3.58 8.05 2.373 8.308 1.261 8.545-.852 8.348-2.185 7.855-3.712 7.289-4.894 6.345-5.546 5.27-6.08 4.388-6.145 3.095-5.794 2.148-5.751 2.031-5.701 1.917-5.645 1.808-5.645 1.808-4.456 .401-3.766-.049-3.15-.451-.272-.242 0 0" fill="#b52a3c"/>
<path transform="matrix(1,0,0,-1,387.0398,169.34149)" d="M0 0C0 0 .319 .318 .47 .491 1.5 1.676 2.291 3.02 2.322 4.294 2.348 5.425 3.464 7.601 2.669 8.292 1.788 9.057-.724 8.78-1.906 8.427-2.996 8.101-4.755 6.915-5.687 5.842-6.755 4.613-7.339 3.217-7.395 1.961-7.44 .93-6.876-.235-6.114-.898-6.02-.979-5.922-1.055-5.82-1.124-5.82-1.124-4.102-1.788-3.28-1.851-2.547-1.908-.122-.343 0 0" fill="#b52a3c"/>
<path transform="matrix(1,0,0,-1,399.6071,166.23242)" d="M0 0C0 0 .381-.239 .585-.347 1.971-1.083 3.459-1.552 4.707-1.294 5.814-1.066 8.186-1.662 8.68-.731 9.227 .299 8.391 2.684 7.781 3.756 7.218 4.744 5.665 6.191 4.41 6.857 2.972 7.621 1.48 7.875 .244 7.646-.77 7.458-1.779 6.647-2.252 5.755-2.311 5.644-2.362 5.532-2.406 5.417-2.406 5.417-2.666 3.593-2.543 2.779-2.433 2.052-.362 .041 0 0" fill="#b52a3c"/>
<path transform="matrix(1,0,0,-1,347.9035,176.1977)" d="M0 0C0 0 .432 .126 .648 .206 2.12 .751 3.46 1.549 4.098 2.652 4.664 3.631 6.688 5.005 6.322 5.993 5.917 7.087 3.58 8.05 2.373 8.308 1.261 8.545-.852 8.348-2.185 7.855-3.712 7.289-4.894 6.345-5.546 5.27-6.08 4.388-6.145 3.095-5.794 2.148-5.751 2.031-5.701 1.917-5.645 1.808-5.645 1.808-4.456 .401-3.766-.049-3.15-.451-.272-.242 0 0" fill="#b52a3c"/>
<path transform="matrix(1,0,0,-1,313.9384,252.72248)" d="M0 0C0 0-.049-.448-.058-.677-.116-2.246 .11-3.789 .885-4.8 1.574-5.698 2.07-8.093 3.123-8.132 4.289-8.176 6.072-6.384 6.771-5.367 7.415-4.431 8.04-2.403 8.093-.982 8.154 .645 7.734 2.098 6.989 3.111 6.378 3.942 5.208 4.496 4.199 4.534 4.074 4.539 3.95 4.536 3.828 4.526 3.828 4.526 2.073 3.965 1.394 3.499 .787 3.083-.12 .344 0 0" fill="#b52a3c"/>
<path transform="matrix(1,0,0,-1,316.0237,233.63178)" d="M0 0C0 0-.28 .212-.432 .305-1.471 .947-2.639 1.325-3.727 1.015-4.694 .739-6.581 1.197-7.151 .275-7.781-.746-7.478-3.005-7.145-4.009-6.839-4.934-5.779-6.252-4.838-6.832-3.761-7.498-2.554-7.669-1.48-7.387-.599-7.155 .381-6.322 .927-5.438 .995-5.329 1.056-5.218 1.112-5.105 1.112-5.105 1.634-3.333 1.667-2.554 1.696-1.858 .296-.022 0 0" fill="#b52a3c"/>
<path transform="matrix(1,0,0,-1,347.5494,245.63343)" d="M0 0C0 0 .339 .09 .507 .152 1.652 .576 2.669 1.264 3.094 2.313 3.472 3.244 4.994 4.45 4.618 5.466 4.202 6.591 2.148 8.995 1.152 9.35 .235 9.678-2.492 9.746-3.528 9.362-4.716 8.923-4.472 6.733-4.911 5.713-5.27 4.876-5.217 3.591-4.857 2.617-4.812 2.497-4.763 2.38-4.708 2.266-4.708 2.266-3.633 .764-3.039 .259-2.508-.193-.2-.22 0 0" fill="#b52a3c"/>
<path transform="matrix(1,0,0,-1,362.6865,248.79773)" d="M0 0C0 0 .339 .09 .507 .152 1.652 .576 2.669 1.264 3.094 2.313 3.472 3.244 4.994 4.45 4.618 5.466 4.201 6.591 2.148 8.995 1.152 9.35 .235 9.678-2.492 9.746-3.528 9.362-4.716 8.923-4.472 6.733-4.911 5.713-5.27 4.876-5.217 3.591-4.857 2.617-4.812 2.497-4.763 2.379-4.708 2.266-4.708 2.266-3.633 .764-3.039 .258-2.508-.193-.2-.22 0 0" fill="#b52a3c"/>
<path transform="matrix(1,0,0,-1,354.0629,227.99823)" d="M0 0C0 0 .339 .09 .507 .152 1.652 .576 2.668 1.264 3.094 2.313 3.472 3.244 4.994 4.45 4.618 5.466 4.201 6.591 2.148 8.995 1.152 9.35 .235 9.678-2.492 9.746-3.528 9.362-4.716 8.923-4.472 6.733-4.911 5.713-5.27 4.876-5.217 3.591-4.857 2.617-4.812 2.497-4.763 2.379-4.708 2.266-4.708 2.266-3.633 .764-3.039 .258-2.508-.193-.2-.22 0 0" fill="#b52a3c"/>
<path transform="matrix(1,0,0,-1,367.9477,235.69129)" d="M0 0C0 0 .339 .09 .507 .152 1.652 .576 2.669 1.264 3.094 2.313 3.472 3.244 4.994 4.45 4.618 5.466 4.201 6.591 2.148 8.995 1.152 9.35 .235 9.678-2.492 9.746-3.528 9.362-4.716 8.923-4.472 6.733-4.911 5.713-5.27 4.876-5.217 3.591-4.857 2.617-4.812 2.497-4.763 2.379-4.708 2.266-4.708 2.266-3.633 .764-3.039 .259-2.508-.193-.2-.22 0 0" fill="#b52a3c"/>
<path transform="matrix(1,0,0,-1,380.5356,228.37311)" d="M0 0C0 0 .339 .09 .507 .152 1.652 .576 2.669 1.264 3.094 2.313 3.472 3.244 4.994 4.45 4.618 5.466 4.202 6.591 2.148 8.995 1.152 9.35 .235 9.678-2.492 9.746-3.528 9.363-4.716 8.923-4.472 6.733-4.911 5.713-5.27 4.876-5.217 3.591-4.857 2.617-4.812 2.497-4.763 2.38-4.708 2.266-4.708 2.266-3.633 .764-3.039 .259-2.508-.193-.2-.22 0 0" fill="#b52a3c"/>
<path transform="matrix(1,0,0,-1,420.4582,211.58808)" d="M0 0C0 0 .339 .09 .507 .152 1.652 .576 2.669 1.264 3.094 2.313 3.472 3.244 4.994 4.45 4.618 5.466 4.202 6.591 2.148 8.995 1.152 9.35 .235 9.678-2.492 9.746-3.528 9.362-4.716 8.923-4.472 6.733-4.911 5.713-5.27 4.876-5.217 3.591-4.857 2.617-4.812 2.497-4.763 2.379-4.708 2.266-4.708 2.266-3.633 .764-3.039 .258-2.508-.193-.2-.22 0 0" fill="#b52a3c"/>
<path transform="matrix(1,0,0,-1,439.1516,203.12659)" d="M0 0C0 0 .339 .09 .507 .152 1.652 .576 2.669 1.264 3.094 2.313 3.472 3.244 4.994 4.45 4.618 5.466 4.202 6.591 2.148 8.995 1.152 9.35 .235 9.678-2.492 9.746-3.528 9.362-4.716 8.923-4.472 6.733-4.911 5.713-5.27 4.876-5.217 3.591-4.857 2.617-4.812 2.497-4.763 2.379-4.708 2.266-4.708 2.266-3.633 .764-3.039 .258-2.508-.193-.2-.22 0 0" fill="#b52a3c"/>
<path transform="matrix(1,0,0,-1,438.0096,221.25489)" d="M0 0C0 0 .339 .09 .507 .152 1.652 .576 2.668 1.264 3.094 2.313 3.472 3.244 4.994 4.45 4.618 5.466 4.201 6.591 2.148 8.995 1.152 9.35 .235 9.678-2.492 9.746-3.528 9.363-4.716 8.923-4.472 6.733-4.911 5.713-5.27 4.876-5.217 3.591-4.857 2.617-4.812 2.497-4.763 2.38-4.708 2.266-4.708 2.266-3.633 .764-3.039 .259-2.508-.193-.2-.22 0 0" fill="#b52a3c"/>
<path transform="matrix(1,0,0,-1,451.6332,231.06519)" d="M0 0C0 0 .339 .09 .507 .152 1.652 .576 2.668 1.264 3.094 2.313 3.472 3.244 4.994 4.45 4.618 5.466 4.201 6.591 2.148 8.995 1.152 9.35 .235 9.678-2.492 9.746-3.528 9.362-4.716 8.923-4.472 6.733-4.911 5.713-5.27 4.876-5.217 3.591-4.857 2.617-4.812 2.497-4.763 2.379-4.708 2.266-4.708 2.266-3.633 .764-3.039 .259-2.508-.193-.2-.22 0 0" fill="#b52a3c"/>
<path transform="matrix(1,0,0,-1,346.2663,209.3133)" d="M0 0C0 0 .339 .09 .507 .152 1.652 .576 2.669 1.264 3.094 2.313 3.472 3.244 4.994 4.45 4.618 5.466 4.202 6.591 2.148 8.995 1.152 9.35 .235 9.678-2.492 9.746-3.528 9.362-4.716 8.923-4.472 6.733-4.911 5.713-5.27 4.876-5.217 3.591-4.857 2.617-4.812 2.497-4.763 2.379-4.708 2.266-4.708 2.266-3.633 .764-3.039 .258-2.508-.193-.2-.22 0 0" fill="#b52a3c"/>
<path transform="matrix(1,0,0,-1,361.6992,215.24237)" d="M0 0C0 0 .339 .09 .507 .152 1.652 .576 2.668 1.264 3.094 2.313 3.472 3.244 4.994 4.45 4.618 5.466 4.201 6.591 2.148 8.995 1.152 9.35 .235 9.678-2.492 9.746-3.528 9.363-4.716 8.923-4.472 6.733-4.911 5.713-5.27 4.876-5.217 3.591-4.857 2.617-4.812 2.497-4.763 2.38-4.708 2.266-4.708 2.266-3.633 .764-3.039 .259-2.508-.193-.2-.22 0 0" fill="#b52a3c"/>
<path transform="matrix(1,0,0,-1,378.9416,207.875)" d="M0 0C0 0 .339 .09 .507 .152 1.652 .576 2.669 1.264 3.094 2.313 3.472 3.244 4.994 4.45 4.618 5.466 4.202 6.591 2.148 8.995 1.152 9.35 .235 9.678-2.492 9.746-3.528 9.362-4.716 8.923-4.472 6.733-4.911 5.713-5.27 4.876-5.217 3.591-4.857 2.617-4.812 2.497-4.763 2.379-4.708 2.266-4.708 2.266-3.633 .764-3.039 .258-2.508-.193-.2-.22 0 0" fill="#b52a3c"/>
<path transform="matrix(1,0,0,-1,394.5952,197.4195)" d="M0 0C0 0 .339 .09 .507 .152 1.652 .576 2.668 1.264 3.094 2.313 3.472 3.244 4.994 4.45 4.618 5.466 4.201 6.591 2.148 8.995 1.152 9.35 .235 9.678-2.492 9.746-3.528 9.362-4.716 8.923-4.472 6.733-4.911 5.713-5.27 4.876-5.217 3.591-4.857 2.617-4.812 2.497-4.763 2.379-4.708 2.266-4.708 2.266-3.633 .764-3.039 .259-2.508-.193-.2-.22 0 0" fill="#b52a3c"/>
<path transform="matrix(1,0,0,-1,395.5625,180.31629)" d="M0 0C0 0 .339 .09 .507 .152 1.652 .576 2.669 1.264 3.094 2.313 3.472 3.244 4.994 4.45 4.618 5.466 4.202 6.591 2.148 8.995 1.152 9.35 .235 9.678-2.492 9.746-3.528 9.362-4.716 8.923-4.472 6.733-4.911 5.713-5.27 4.876-5.217 3.591-4.857 2.617-4.812 2.497-4.763 2.38-4.708 2.266-4.708 2.266-3.633 .764-3.039 .259-2.508-.193-.2-.22 0 0" fill="#b52a3c"/>
<path transform="matrix(1,0,0,-1,371.8499,168.98932)" d="M0 0C0 0 .339 .09 .507 .152 1.652 .576 2.669 1.264 3.094 2.313 3.472 3.244 4.994 4.45 4.618 5.466 4.201 6.591 2.148 8.995 1.152 9.35 .235 9.678-2.492 9.746-3.528 9.362-4.716 8.923-4.472 6.733-4.911 5.713-5.27 4.876-5.217 3.591-4.857 2.617-4.812 2.497-4.763 2.379-4.708 2.266-4.708 2.266-3.633 .764-3.039 .258-2.508-.193-.2-.22 0 0" fill="#b52a3c"/>
<path transform="matrix(1,0,0,-1,379.6465,187.6742)" d="M0 0C0 0 .339 .09 .507 .152 1.652 .576 2.669 1.264 3.094 2.313 3.472 3.244 4.994 4.45 4.618 5.466 4.202 6.591 2.148 8.995 1.152 9.35 .235 9.678-2.492 9.746-3.528 9.362-4.716 8.923-4.472 6.733-4.911 5.713-5.27 4.876-5.217 3.591-4.857 2.617-4.812 2.497-4.763 2.379-4.708 2.266-4.708 2.266-3.633 .764-3.039 .258-2.508-.193-.2-.22 0 0" fill="#b52a3c"/>
<path transform="matrix(1,0,0,-1,336.1953,228.8468)" d="M0 0C0 0 .339 .09 .507 .152 1.652 .576 2.668 1.264 3.094 2.313 3.472 3.244 4.994 4.45 4.618 5.466 4.201 6.591 2.148 8.995 1.152 9.35 .235 9.678-2.492 9.746-3.528 9.363-4.716 8.923-4.472 6.733-4.911 5.713-5.27 4.876-5.217 3.591-4.857 2.617-4.812 2.497-4.763 2.38-4.708 2.266-4.708 2.266-3.633 .764-3.039 .259-2.508-.193-.2-.22 0 0" fill="#b52a3c"/>
<path transform="matrix(1,0,0,-1,343.7057,193.01508)" d="M0 0C0 0 .339 .09 .507 .152 1.652 .576 2.668 1.264 3.094 2.313 3.472 3.244 4.994 4.45 4.618 5.466 4.201 6.591 2.148 8.995 1.152 9.35 .235 9.678-2.492 9.746-3.528 9.362-4.716 8.923-4.472 6.733-4.911 5.713-5.27 4.876-5.217 3.591-4.857 2.617-4.812 2.497-4.763 2.379-4.708 2.266-4.708 2.266-3.633 .764-3.039 .259-2.508-.193-.2-.22 0 0" fill="#b52a3c"/>
<path transform="matrix(1,0,0,-1,328.8117,193.77472)" d="M0 0C0 0 .339 .09 .507 .152 1.652 .576 2.668 1.264 3.094 2.313 3.472 3.244 4.994 4.45 4.618 5.466 4.201 6.591 2.148 8.995 1.152 9.35 .235 9.678-2.492 9.746-3.528 9.362-4.716 8.923-4.472 6.733-4.911 5.713-5.27 4.876-5.217 3.591-4.857 2.617-4.812 2.497-4.763 2.379-4.708 2.266-4.708 2.266-3.633 .764-3.039 .258-2.508-.193-.2-.22 0 0" fill="#b52a3c"/>
<path transform="matrix(1,0,0,-1,328.5579,244.40473)" d="M0 0C0 0 .339 .09 .507 .152 1.652 .576 2.669 1.264 3.094 2.313 3.472 3.244 4.994 4.45 4.618 5.466 4.202 6.591 2.148 8.995 1.152 9.35 .235 9.678-2.492 9.746-3.528 9.362-4.716 8.923-4.472 6.733-4.911 5.713-5.27 4.876-5.217 3.591-4.857 2.617-4.812 2.497-4.763 2.379-4.708 2.266-4.708 2.266-3.633 .764-3.039 .258-2.508-.193-.2-.22 0 0" fill="#b52a3c"/>
<path transform="matrix(1,0,0,-1,326.4984,277.1748)" d="M0 0C0 0 .339 .09 .507 .152 1.652 .576 2.669 1.264 3.094 2.313 3.472 3.244 4.994 4.45 4.618 5.466 4.201 6.591 2.148 8.995 1.152 9.35 .235 9.678-2.492 9.746-3.528 9.362-4.716 8.923-4.472 6.733-4.911 5.713-5.27 4.876-5.217 3.591-4.857 2.617-4.812 2.497-4.763 2.38-4.708 2.266-4.708 2.266-3.633 .764-3.039 .259-2.508-.193-.2-.22 0 0" fill="#b52a3c"/>
<path transform="matrix(1,0,0,-1,352.1549,274.04359)" d="M0 0C0 0 .429-.136 .653-.19 2.18-.556 3.737-.637 4.881-.076 5.896 .423 8.342 .438 8.587 1.463 8.859 2.598 7.453 4.698 6.594 5.583 5.802 6.399 3.937 7.411 2.554 7.742 .971 8.122-.537 7.995-1.677 7.464-2.611 7.028-3.385 5.99-3.62 5.008-3.649 4.887-3.671 4.765-3.685 4.643-3.685 4.643-3.48 2.812-3.157 2.054-2.868 1.378-.361-.05 0 0" fill="#b52a3c"/>
<path transform="matrix(1,0,0,-1,344.4521,277.23469)" d="M0 0C0 0-.28 .212-.432 .305-1.471 .947-2.639 1.325-3.727 1.015-4.694 .739-6.581 1.197-7.151 .275-7.781-.746-7.478-3.005-7.145-4.009-6.839-4.934-5.779-6.252-4.838-6.832-3.761-7.498-2.554-7.669-1.48-7.387-.599-7.155 .381-6.322 .927-5.438 .995-5.329 1.056-5.218 1.112-5.105 1.112-5.105 1.634-3.333 1.667-2.554 1.696-1.858 .296-.022 0 0" fill="#b52a3c"/>
<path transform="matrix(1,0,0,-1,406.6203,202.83612)" d="M0 0C0 0-.28 .212-.432 .306-1.471 .947-2.639 1.325-3.727 1.015-4.694 .739-6.581 1.197-7.151 .275-7.781-.746-7.478-3.005-7.145-4.009-6.839-4.934-5.779-6.252-4.838-6.832-3.761-7.498-2.554-7.669-1.48-7.387-.599-7.155 .381-6.322 .927-5.438 .995-5.329 1.056-5.218 1.112-5.105 1.112-5.105 1.634-3.333 1.667-2.554 1.696-1.858 .296-.022 0 0" fill="#b52a3c"/>
<path transform="matrix(1,0,0,-1,428.308,190.47718)" d="M0 0C0 0-.28 .212-.432 .306-1.471 .947-2.639 1.325-3.727 1.015-4.694 .739-6.581 1.197-7.151 .275-7.781-.746-7.478-3.005-7.145-4.009-6.839-4.934-5.779-6.252-4.838-6.832-3.761-7.498-2.554-7.669-1.48-7.387-.599-7.155 .381-6.322 .927-5.438 .995-5.329 1.056-5.218 1.112-5.105 1.112-5.105 1.634-3.333 1.667-2.554 1.696-1.858 .296-.022 0 0" fill="#b52a3c"/>
<path transform="matrix(1,0,0,-1,435.3801,179.54608)" d="M0 0C0 0-.28 .212-.432 .305-1.471 .947-2.639 1.325-3.727 1.015-4.694 .739-6.581 1.197-7.151 .275-7.781-.746-7.478-3.005-7.145-4.009-6.839-4.934-5.779-6.252-4.838-6.832-3.761-7.498-2.554-7.669-1.48-7.387-.599-7.155 .381-6.322 .927-5.438 .995-5.329 1.056-5.218 1.112-5.105 1.112-5.105 1.634-3.333 1.667-2.554 1.696-1.858 .296-.022 0 0" fill="#b52a3c"/>
<path transform="matrix(1,0,0,-1,411.469,186.34253)" d="M0 0C0 0-.28 .212-.432 .305-1.471 .947-2.639 1.325-3.727 1.015-4.694 .739-6.581 1.197-7.151 .275-7.781-.746-7.478-3.005-7.145-4.009-6.839-4.934-5.779-6.252-4.838-6.832-3.761-7.498-2.554-7.669-1.48-7.387-.599-7.155 .381-6.322 .927-5.438 .995-5.329 1.056-5.218 1.112-5.105 1.112-5.105 1.634-3.333 1.667-2.554 1.696-1.858 .296-.022 0 0" fill="#b52a3c"/>
<path transform="matrix(1,0,0,-1,420.2372,172.94519)" d="M0 0C0 0-.28 .212-.432 .305-1.471 .947-2.639 1.325-3.727 1.015-4.694 .739-6.581 1.197-7.151 .275-7.781-.746-7.478-3.005-7.145-4.009-6.839-4.934-5.779-6.252-4.839-6.832-3.761-7.498-2.554-7.669-1.48-7.387-.599-7.155 .381-6.322 .927-5.438 .995-5.329 1.056-5.218 1.112-5.105 1.112-5.105 1.634-3.333 1.667-2.554 1.696-1.858 .296-.022 0 0" fill="#b52a3c"/>
<path transform="matrix(1,0,0,-1,411.0865,218.8515)" d="M0 0C0 0-.28 .212-.432 .306-1.471 .947-2.639 1.325-3.727 1.015-4.694 .739-6.581 1.197-7.151 .275-7.781-.746-7.478-3.005-7.145-4.009-6.839-4.934-5.779-6.252-4.838-6.832-3.761-7.498-2.554-7.669-1.48-7.387-.599-7.155 .381-6.322 .927-5.438 .995-5.329 1.056-5.218 1.112-5.105 1.112-5.105 1.634-3.333 1.667-2.554 1.696-1.858 .296-.022 0 0" fill="#b52a3c"/>
<path transform="matrix(1,0,0,-1,428.1949,220.78083)" d="M0 0C0 0-.28 .212-.432 .305-1.471 .947-2.639 1.325-3.727 1.015-4.694 .739-6.581 1.197-7.151 .275-7.781-.746-7.478-3.005-7.145-4.009-6.839-4.934-5.779-6.252-4.838-6.832-3.761-7.498-2.554-7.669-1.48-7.387-.599-7.155 .381-6.322 .927-5.438 .995-5.329 1.056-5.218 1.112-5.105 1.112-5.105 1.634-3.333 1.667-2.554 1.696-1.858 .296-.022 0 0" fill="#b52a3c"/>
<path transform="matrix(1,0,0,-1,441.0283,230.01813)" d="M0 0C0 0-.28 .212-.432 .305-1.471 .947-2.639 1.325-3.727 1.015-4.694 .739-6.581 1.197-7.151 .275-7.781-.746-7.478-3.005-7.145-4.009-6.839-4.934-5.779-6.252-4.839-6.832-3.761-7.498-2.554-7.669-1.48-7.387-.599-7.155 .381-6.322 .927-5.438 .995-5.329 1.056-5.218 1.112-5.105 1.112-5.105 1.634-3.333 1.667-2.554 1.696-1.858 .296-.022 0 0" fill="#b52a3c"/>
<path transform="matrix(1,0,0,-1,453.5944,239.94519)" d="M0 0C0 0-.28 .212-.432 .305-1.471 .947-2.639 1.325-3.727 1.015-4.694 .739-6.581 1.197-7.151 .275-7.781-.746-7.478-3.005-7.145-4.009-6.839-4.934-5.779-6.252-4.839-6.832-3.761-7.498-2.554-7.669-1.48-7.387-.599-7.155 .381-6.322 .927-5.438 .995-5.329 1.056-5.218 1.112-5.105 1.112-5.105 1.634-3.333 1.667-2.554 1.696-1.858 .296-.022 0 0" fill="#b52a3c"/>
<path transform="matrix(1,0,0,-1,453.0629,206.69422)" d="M0 0C0 0-.28 .212-.432 .305-1.471 .947-2.639 1.325-3.727 1.015-4.694 .739-6.581 1.197-7.151 .275-7.781-.746-7.478-3.005-7.145-4.009-6.839-4.934-5.779-6.252-4.838-6.832-3.761-7.498-2.554-7.669-1.48-7.387-.599-7.155 .381-6.322 .927-5.438 .995-5.329 1.056-5.218 1.112-5.105 1.112-5.105 1.634-3.333 1.667-2.554 1.696-1.858 .296-.022 0 0" fill="#b52a3c"/>
<path transform="matrix(1,0,0,-1,393.1063,249.39722)" d="M0 0C0 0-.28 .212-.432 .306-1.471 .947-2.639 1.325-3.727 1.015-4.694 .739-6.581 1.197-7.151 .275-7.781-.746-7.478-3.005-7.145-4.009-6.839-4.934-5.779-6.252-4.838-6.832-3.761-7.498-2.554-7.669-1.48-7.387-.599-7.155 .381-6.322 .927-5.438 .995-5.329 1.056-5.218 1.112-5.105 1.112-5.105 1.634-3.333 1.667-2.554 1.696-1.858 .296-.022 0 0" fill="#b52a3c"/>
<path transform="matrix(1,0,0,-1,395.9498,270.9923)" d="M0 0C0 0-.28 .212-.432 .306-1.471 .947-2.639 1.325-3.727 1.015-4.694 .739-6.581 1.197-7.151 .275-7.781-.746-7.478-3.005-7.145-4.009-6.839-4.934-5.779-6.252-4.838-6.832-3.761-7.498-2.554-7.669-1.48-7.387-.599-7.155 .381-6.322 .927-5.438 .995-5.329 1.056-5.218 1.112-5.105 1.112-5.105 1.634-3.333 1.667-2.554 1.696-1.858 .296-.022 0 0" fill="#b52a3c"/>
<path transform="matrix(1,0,0,-1,384.7382,265.80848)" d="M0 0C0 0 .213 .279 .307 .431 .953 1.467 1.336 2.633 1.03 3.723 .759 4.69 1.225 6.576 .305 7.149-.713 7.784-2.974 7.491-3.979 7.162-4.905 6.859-6.227 5.805-6.812 4.867-7.482 3.793-7.658 2.586-7.38 1.511-7.153 .629-6.324-.355-5.442-.904-5.333-.972-5.222-1.034-5.11-1.091-5.11-1.091-3.34-1.62-2.561-1.656-1.865-1.688-.023-.296 0 0" fill="#b52a3c"/>
<path transform="matrix(1,0,0,-1,416.0879,267.55244)" d="M0 0C0 0-.28 .212-.432 .306-1.471 .947-2.639 1.325-3.727 1.015-4.694 .739-6.581 1.197-7.151 .275-7.781-.746-7.478-3.005-7.145-4.009-6.839-4.934-5.779-6.252-4.838-6.832-3.761-7.498-2.554-7.669-1.48-7.387-.599-7.155 .381-6.322 .927-5.438 .995-5.329 1.056-5.218 1.112-5.105 1.112-5.105 1.634-3.333 1.667-2.554 1.696-1.858 .296-.022 0 0" fill="#b52a3c"/>
<path transform="matrix(1,0,0,-1,407.4413,241.93323)" d="M0 0C0 0-.28 .212-.432 .305-1.471 .947-2.639 1.325-3.727 1.015-4.694 .739-6.581 1.197-7.151 .275-7.781-.746-7.478-3.005-7.145-4.009-6.839-4.934-5.779-6.252-4.838-6.832-3.761-7.498-2.554-7.669-1.48-7.387-.599-7.155 .381-6.322 .927-5.438 .995-5.329 1.056-5.218 1.112-5.105 1.112-5.105 1.634-3.333 1.667-2.554 1.696-1.858 .296-.022 0 0" fill="#b52a3c"/>
<path transform="matrix(1,0,0,-1,362.405,281.89729)" d="M0 0C0 0-.28 .212-.432 .305-1.471 .947-2.639 1.325-3.727 1.015-4.694 .739-6.581 1.197-7.151 .275-7.781-.746-7.478-3.005-7.145-4.009-6.839-4.934-5.779-6.252-4.838-6.832-3.761-7.498-2.554-7.669-1.48-7.387-.599-7.155 .381-6.322 .927-5.438 .995-5.329 1.056-5.218 1.112-5.105 1.112-5.105 1.634-3.333 1.667-2.554 1.696-1.858 .296-.022 0 0" fill="#b52a3c"/>
<path transform="matrix(1,0,0,-1,353.5776,293.0714)" d="M0 0C0 0-.28 .212-.432 .305-1.471 .947-2.639 1.325-3.727 1.015-4.694 .739-6.581 1.197-7.151 .275-7.781-.746-7.478-3.005-7.145-4.009-6.839-4.934-5.779-6.252-4.838-6.832-3.761-7.498-2.554-7.669-1.48-7.387-.599-7.155 .381-6.322 .927-5.438 .995-5.329 1.056-5.218 1.112-5.105 1.112-5.105 1.634-3.333 1.667-2.554 1.696-1.858 .296-.022 0 0" fill="#b52a3c"/>
<path transform="matrix(1,0,0,-1,362.4293,305.4261)" d="M0 0C0 0-.28 .212-.432 .306-1.471 .947-2.639 1.325-3.727 1.015-4.694 .739-6.581 1.197-7.151 .275-7.781-.746-7.478-3.005-7.145-4.009-6.839-4.934-5.779-6.252-4.838-6.832-3.761-7.498-2.554-7.669-1.48-7.387-.599-7.155 .381-6.322 .927-5.438 .995-5.329 1.056-5.218 1.112-5.105 1.112-5.105 1.634-3.333 1.667-2.554 1.696-1.858 .296-.022 0 0" fill="#b52a3c"/>
<path transform="matrix(1,0,0,-1,354.4496,326.14533)" d="M0 0C0 0 .268 .226 .394 .353 1.25 1.224 1.878 2.279 1.817 3.409 1.763 4.412 2.628 6.151 1.855 6.911 1 7.752-1.27 7.959-2.323 7.857-3.293 7.763-4.813 7.023-5.588 6.234-6.476 5.331-6.911 4.192-6.874 3.083-6.844 2.172-6.249 1.031-5.509 .303-5.417 .213-5.322 .128-5.225 .049-5.225 .049-3.613-.853-2.86-1.058-2.188-1.241-.087-.284 0 0" fill="#b52a3c"/>
<path transform="matrix(1,0,0,-1,335.0332,263.45588)" d="M0 0C0 0 .339 .09 .507 .152 1.652 .576 2.669 1.264 3.094 2.313 3.472 3.244 4.994 4.45 4.618 5.466 4.202 6.591 2.148 8.995 1.152 9.35 .235 9.678-2.492 9.746-3.528 9.362-4.716 8.923-4.472 6.733-4.911 5.713-5.27 4.876-5.217 3.591-4.857 2.617-4.812 2.497-4.763 2.379-4.708 2.266-4.708 2.266-3.633 .764-3.039 .258-2.508-.193-.2-.22 0 0" fill="#b52a3c"/>
<path transform="matrix(1,0,0,-1,373.0424,301.03334)" d="M0 0C0 0 .339 .09 .507 .152 1.652 .576 2.668 1.264 3.094 2.313 3.472 3.244 4.994 4.45 4.618 5.466 4.201 6.591 2.148 8.995 1.152 9.35 .235 9.678-2.492 9.746-3.528 9.363-4.716 8.923-4.472 6.733-4.911 5.713-5.27 4.876-5.217 3.591-4.857 2.617-4.812 2.497-4.763 2.38-4.708 2.266-4.708 2.266-3.633 .764-3.039 .259-2.508-.193-.2-.22 0 0" fill="#b52a3c"/>
<path transform="matrix(1,0,0,-1,388.3781,295.9449)" d="M0 0C0 0 .339 .09 .507 .152 1.652 .576 2.668 1.264 3.094 2.313 3.472 3.244 4.994 4.45 4.618 5.466 4.201 6.591 2.148 8.995 1.152 9.35 .235 9.678-2.492 9.746-3.528 9.362-4.716 8.923-4.472 6.733-4.911 5.713-5.27 4.876-5.217 3.591-4.857 2.617-4.812 2.497-4.763 2.379-4.708 2.266-4.708 2.266-3.633 .764-3.039 .259-2.508-.193-.2-.22 0 0" fill="#b52a3c"/>
<path transform="matrix(1,0,0,-1,405.2277,290.4948)" d="M0 0C0 0 .339 .09 .507 .152 1.652 .576 2.668 1.264 3.094 2.313 3.472 3.244 4.994 4.45 4.618 5.466 4.201 6.591 2.148 8.995 1.152 9.35 .235 9.678-2.492 9.746-3.528 9.362-4.716 8.923-4.472 6.733-4.911 5.713-5.27 4.876-5.217 3.591-4.857 2.617-4.812 2.497-4.763 2.379-4.708 2.266-4.708 2.266-3.633 .764-3.039 .259-2.508-.193-.2-.22 0 0" fill="#b52a3c"/>
<path transform="matrix(1,0,0,-1,422.8395,261.79304)" d="M0 0C0 0 .339 .09 .507 .152 1.652 .576 2.669 1.264 3.094 2.313 3.472 3.244 4.994 4.45 4.618 5.466 4.201 6.591 2.148 8.995 1.152 9.35 .235 9.678-2.492 9.746-3.528 9.362-4.716 8.923-4.472 6.733-4.911 5.713-5.27 4.876-5.217 3.591-4.857 2.617-4.812 2.497-4.763 2.38-4.708 2.266-4.708 2.266-3.633 .764-3.039 .259-2.508-.193-.2-.22 0 0" fill="#b52a3c"/>
<path transform="matrix(1,0,0,-1,436.0597,252.99768)" d="M0 0C0 0 .339 .09 .507 .152 1.652 .576 2.669 1.264 3.094 2.313 3.472 3.244 4.994 4.45 4.618 5.466 4.202 6.591 2.148 8.995 1.152 9.35 .235 9.678-2.492 9.746-3.528 9.362-4.716 8.923-4.472 6.733-4.911 5.713-5.27 4.876-5.217 3.591-4.857 2.617-4.812 2.497-4.763 2.379-4.708 2.266-4.708 2.266-3.633 .764-3.039 .258-2.508-.193-.2-.22 0 0" fill="#b52a3c"/>
<path transform="matrix(1,0,0,-1,424.0358,291.00019)" d="M0 0C0 0 .339 .09 .507 .152 1.652 .576 2.669 1.264 3.094 2.313 3.472 3.244 4.994 4.45 4.618 5.466 4.202 6.591 2.148 8.995 1.152 9.35 .235 9.678-2.492 9.746-3.528 9.362-4.716 8.923-4.472 6.733-4.911 5.713-5.27 4.876-5.217 3.591-4.857 2.617-4.812 2.497-4.763 2.38-4.708 2.266-4.708 2.266-3.633 .764-3.039 .259-2.508-.193-.2-.22 0 0" fill="#b52a3c"/>
<path transform="matrix(1,0,0,-1,371.8914,322.3459)" d="M0 0C0 0 .339 .09 .507 .152 1.652 .576 2.669 1.264 3.094 2.313 3.472 3.244 4.994 4.45 4.618 5.466 4.201 6.591 2.148 8.995 1.152 9.35 .235 9.678-2.492 9.746-3.528 9.362-4.716 8.923-4.472 6.733-4.911 5.713-5.27 4.876-5.217 3.591-4.857 2.617-4.812 2.497-4.763 2.379-4.708 2.266-4.708 2.266-3.633 .764-3.039 .259-2.508-.193-.2-.22 0 0" fill="#b52a3c"/>
<path transform="matrix(1,0,0,-1,389.4694,312.7229)" d="M0 0C0 0 .339 .09 .507 .152 1.652 .576 2.668 1.264 3.094 2.313 3.472 3.244 4.994 4.45 4.618 5.466 4.201 6.591 2.148 8.995 1.152 9.35 .235 9.678-2.492 9.746-3.528 9.362-4.716 8.923-4.472 6.733-4.911 5.713-5.27 4.876-5.217 3.591-4.857 2.617-4.812 2.497-4.763 2.379-4.708 2.266-4.708 2.266-3.633 .764-3.039 .259-2.508-.193-.2-.22 0 0" fill="#b52a3c"/>
</g>
</g>
</svg>
