<?xml version="1.0" encoding="UTF-8" standalone="no"?>
<!-- Created with Inkscape (http://www.inkscape.org/) -->

<svg
   version="1.1"
   id="svg1"
   width="1440"
   height="1440"
   viewBox="0 0 1440 1440"
   sodipodi:docname="upload_z3h236e7dsdiao2mgr7jgvqsqm.pdf"
   xmlns:inkscape="http://www.inkscape.org/namespaces/inkscape"
   xmlns:sodipodi="http://sodipodi.sourceforge.net/DTD/sodipodi-0.dtd"
   xmlns="http://www.w3.org/2000/svg"
   xmlns:svg="http://www.w3.org/2000/svg">
  <defs
     id="defs1">
    <clipPath
       clipPathUnits="userSpaceOnUse"
       id="clipPath3">
      <path
         d="M 0,1100 H 1100 V 0 H 0 Z"
         transform="translate(-462.21201,-631.80962)"
         id="path3" />
    </clipPath>
    <clipPath
       clipPathUnits="userSpaceOnUse"
       id="clipPath5">
      <path
         d="M 0,1100 H 1100 V 0 H 0 Z"
         transform="translate(-530.79272,-637.71312)"
         id="path5" />
    </clipPath>
    <clipPath
       clipPathUnits="userSpaceOnUse"
       id="clipPath7">
      <path
         d="M 0,1100 H 1100 V 0 H 0 Z"
         transform="translate(-431.25221,-552.92651)"
         id="path7" />
    </clipPath>
    <clipPath
       clipPathUnits="userSpaceOnUse"
       id="clipPath9">
      <path
         d="M 0,1100 H 1100 V 0 H 0 Z"
         transform="translate(-438.41411,-602.09721)"
         id="path9" />
    </clipPath>
    <clipPath
       clipPathUnits="userSpaceOnUse"
       id="clipPath11">
      <path
         d="M 0,1100 H 1100 V 0 H 0 Z"
         transform="translate(-281.9777,-342.65231)"
         id="path11" />
    </clipPath>
  </defs>
  <sodipodi:namedview
     id="namedview1"
     pagecolor="#ffffff"
     bordercolor="#000000"
     borderopacity="0.25"
     inkscape:showpageshadow="2"
     inkscape:pageopacity="0.0"
     inkscape:pagecheckerboard="0"
     inkscape:deskcolor="#d1d1d1">
    <inkscape:page
       x="0"
       y="0"
       inkscape:label="1"
       id="page1"
       width="1440"
       height="1440"
       margin="147.85466 366.79199 87.733398 302.33865"
       bleed="13.333333" />
  </sodipodi:namedview>
  <g
     id="g1"
     inkscape:groupmode="layer"
     inkscape:label="1">
    <g
       id="layer-MC0">
      <path
         id="path2"
         d="m 0,0 c 0,0 13.838,168.788 118.713,236.492 104.876,67.705 152.072,155.896 152.072,155.896 0,0 88.106,-100.924 33.998,-200.037 C 250.676,93.239 295.208,60.372 260.978,8.801 172.509,-124.484 78.864,-132.23 78.864,-132.23"
         style="fill:#5a5a1c;fill-opacity:1;fill-rule:nonzero;stroke:none"
         transform="matrix(1.3333333,0,0,-1.3333333,602.94933,610.92053)"
         clip-path="url(#clipPath3)" />
      <path
         id="path4"
         d="m 0,0 c 0,0 -25.468,2.37 38.984,51.767 64.453,49.397 142.253,159.889 142.253,159.889 0,0 -37.286,-181.924 -102.275,-220.297"
         style="fill:#989f3a;fill-opacity:1;fill-rule:nonzero;stroke:none"
         transform="matrix(1.3333333,0,0,-1.3333333,694.39027,603.0492)"
         clip-path="url(#clipPath5)" />
      <path
         id="path6"
         d="m 0,0 c 0,0 -111.308,78.574 -115.362,178.92 -4.054,100.346 -45.878,169.095 -45.878,169.095 0,0 105.946,19.806 152.514,-58.196 C 37.841,211.816 78.818,229.243 100.564,184.445 156.768,68.666 123.862,0.607 123.862,0.607"
         style="fill:#5a5a1c;fill-opacity:1;fill-rule:nonzero;stroke:none"
         transform="matrix(1.3333333,0,0,-1.3333333,561.6696,716.098)"
         clip-path="url(#clipPath7)" />
      <path
         id="path8"
         d="m 0,0 c 0,0 -12.052,-16.68 -19.94,48.172 -7.888,64.853 -52.658,163.924 -52.658,163.924 0,0 110.828,-100.192 110.858,-160.909"
         style="fill:#989f3a;fill-opacity:1;fill-rule:nonzero;stroke:none"
         transform="matrix(1.3333333,0,0,-1.3333333,571.2188,650.53707)"
         clip-path="url(#clipPath9)" />
      <path
         id="path10"
         d="m 0,0 -44.856,279.538 c -2.79,17.391 10.642,33.151 28.255,33.151 h 520.898 c 18.634,0 32.297,-17.525 27.753,-35.596 L 412.039,-200.124 c -3.198,-12.72 -14.636,-21.637 -27.752,-21.637 H 107.622 c -11.687,0 -22.201,7.108 -26.556,17.954 L 1.699,-6.128 C 0.907,-4.155 0.337,-2.1 0,0"
         style="fill:#152926;fill-opacity:1;fill-rule:nonzero;stroke:none"
         transform="matrix(1.3333333,0,0,-1.3333333,362.63693,996.4636)"
         clip-path="url(#clipPath11)" />
    </g>
  </g>
</svg>
